# xmcd
#
# Track frame offsets:
#	150
#	14647
#	27228
#	40753
#	53804
#	64351
#	77360
#	89516
#	99049
#	113682
#	124389
#	135145
#	148545
#	162415
#
# Disc length: 2260 seconds
#
# Revision: 0
# Processed by: cddbd v1.5.2PL0 Copyright (c) Steve Scherf et al.
# Submitted via: EasyCDDAExtractor 16.0.6.1
#
DISCID=b008d20e
DTITLE=Γεωργούτη Βούλα - Συλλογή 45 στροφών-Γεωργούτη Βούλα
DYEAR=2012
DGENRE=Λαϊκή
TTITLE0=Γεωργούτη Βούλα - Μην φεύγεις [Λάκης Καρνέζης-Τάκης Παρισσινός]
TTITLE1=Γεωργούτη Βούλα - Θα μείνω γιατί σ' αγαπώ [Τάκης Σούκας-Ηρ. Παπασιδέρη
TTITLE1=ς]
TTITLE2=Μαριανού Μίνα-Κάρολ Κατερίνα - Μέσ' στο πρωϊνό [Μπάμπης Μαρκάκης]
TTITLE3=Γεωργούτη Βούλα - Αν ήσουνα τ' αγόρι μου εσύ [Τάκης Σούκας-Ηρ. Παπασιδ
TTITLE3=έρης]
TTITLE4=Γεωργούτη Βούλα - Ακόμα μιά βραδιά [1969]
TTITLE5=Γεωργούτη Βούλα - Πού βρίσκεσαι, πού νά 'σαι
TTITLE6=Γεωργούτη Βούλα - Δίχως να ντραπείς
TTITLE7=Γεωργούτη Βούλα - Οι αναμνήσεις μείνανε
TTITLE8=Γεωργούτη Βούλα - Τα δειλινά φέρνεις φωτιά
TTITLE9=Γεωργούτη Βούλα - Θέλω να φύγω από κοντά σου
TTITLE10=Γεωργούτη Βούλα-Γκίκα Βούλα - Παράξενο παιδί [1970, Ν. Καρανικόλας-Γ.
TTITLE10=Βρούβας]
TTITLE11=Γεωργούτη Βούλα - Ο εγωϊστής
TTITLE12=Γεωργούτη Βούλα-Γκίκα Βούλα - Να μαραθούν οι πίκρες [1970, χασ., Ν. Κ
TTITLE12=αρανικόλας-Γ. Βρούβας]
TTITLE13=Γεωργούτη Βούλα - Λίγη αγάπη σού ζητώ [ανέκδ., από ελλ. ταινία]
EXTD=
EXTT0=
EXTT1=
EXTT2=
EXTT3=
EXTT4=
EXTT5=
EXTT6=
EXTT7=
EXTT8=
EXTT9=
EXTT10=
EXTT11=
EXTT12=
EXTT13=
PLAYORDER=
